<svg width="400" height="250" xmlns="http://www.w3.org/2000/svg">
  <!-- Top Panel -->
  <rect x="0" y="0" width="400" height="28" fill="#f5f5f5"/>
  <text x="10" y="19" font-family="Arial, sans-serif" font-size="11" fill="#2d2d2d">Activities</text>
  <text x="200" y="19" font-family="Arial, sans-serif" font-size="11" fill="#2d2d2d" text-anchor="middle">12:00</text>
  
  <!-- Overview background -->
  <rect x="0" y="28" width="400" height="222" fill="#2d2d2d"/>
  
  <!-- Search entry -->
  <rect x="100" y="40" width="200" height="32" rx="8" fill="#1e1e1e" stroke="#444444" stroke-width="1"/>
  <text x="200" y="61" font-family="Arial, sans-serif" font-size="12" fill="#aaaaaa" text-anchor="middle">Search...</text>
  
  <!-- App grid -->
  <rect x="50" y="90" width="60" height="60" rx="8" fill="#333333"/>
  <rect x="130" y="90" width="60" height="60" rx="8" fill="#333333"/>
  <rect x="210" y="90" width="60" height="60" rx="8" fill="#333333"/>
  <rect x="290" y="90" width="60" height="60" rx="8" fill="#333333"/>
  
  <rect x="50" y="170" width="60" height="60" rx="8" fill="#333333"/>
  <rect x="130" y="170" width="60" height="60" rx="8" fill="#333333"/>
  <rect x="210" y="170" width="60" height="60" rx="8" fill="#333333"/>
  <rect x="290" y="170" width="60" height="60" rx="8" fill="#333333"/>
</svg>
